<svg xmlns="http://www.w3.org/2000/svg" viewBox="0 0 210 92" role="img" aria-label="sekiguchiayu (鮎) logo"><defs><clipPath id="fish"><path d="M 12 46 C 45 22, 110 22, 150 38 L 192 26 L 178 46 L 192 66 L 150 54 C 110 70, 45 70, 12 46 Z"/></clipPath></defs><g clip-path="url(#fish)"><polygon points="6,14 25.2,14 6,30" fill="#F3C6DD" stroke="#ffffff" stroke-width="0.7" stroke-linejoin="round"/><polygon points="25.2,14 21.4,28.3 6,30" fill="#CDEBF5" stroke="#ffffff" stroke-width="0.7" stroke-linejoin="round"/><polygon points="25.2,14 44.4,14 43.4,33.2" fill="#CDEBF5" stroke="#ffffff" stroke-width="0.7" stroke-linejoin="round"/><polygon points="25.2,14 43.4,33.2 21.4,28.3" fill="#A8D8C0" stroke="#ffffff" stroke-width="0.7" stroke-linejoin="round"/><polygon points="44.4,14 63.6,14 43.4,33.2" fill="#C9B8E8" stroke="#ffffff" stroke-width="0.7" stroke-linejoin="round"/><polygon points="63.6,14 61.4,29.5 43.4,33.2" fill="#F6AFC9" stroke="#ffffff" stroke-width="0.7" stroke-linejoin="round"/><polygon points="63.6,14 82.8,14 83.4,24" fill="#FDF3CE" stroke="#ffffff" stroke-width="0.7" stroke-linejoin="round"/><polygon points="63.6,14 83.4,24 61.4,29.5" fill="#FDF3CE" stroke="#ffffff" stroke-width="0.7" stroke-linejoin="round"/><polygon points="82.8,14 102,14 83.4,24" fill="#C9B8E8" stroke="#ffffff" stroke-width="0.7" stroke-linejoin="round"/><polygon points="102,14 102.1,29.3 83.4,24" fill="#FDF3CE" stroke="#ffffff" stroke-width="0.7" stroke-linejoin="round"/><polygon points="102,14 121.2,14 116.5,32.5" fill="#F3C6DD" stroke="#ffffff" stroke-width="0.7" stroke-linejoin="round"/><polygon points="102,14 116.5,32.5 102.1,29.3" fill="#FDF3CE" stroke="#ffffff" stroke-width="0.7" stroke-linejoin="round"/><polygon points="121.2,14 140.4,14 116.5,32.5" fill="#FDF3CE" stroke="#ffffff" stroke-width="0.7" stroke-linejoin="round"/><polygon points="140.4,14 144.3,28.3 116.5,32.5" fill="#9FD8E6" stroke="#ffffff" stroke-width="0.7" stroke-linejoin="round"/><polygon points="140.4,14 159.6,14 161.9,28.8" fill="#A8D8C0" stroke="#ffffff" stroke-width="0.7" stroke-linejoin="round"/><polygon points="140.4,14 161.9,28.8 144.3,28.3" fill="#FDF3CE" stroke="#ffffff" stroke-width="0.7" stroke-linejoin="round"/><polygon points="159.6,14 178.8,14 161.9,28.8" fill="#C9B8E8" stroke="#ffffff" stroke-width="0.7" stroke-linejoin="round"/><polygon points="178.8,14 184.3,26.6 161.9,28.8" fill="#66C2D4" stroke="#ffffff" stroke-width="0.7" stroke-linejoin="round"/><polygon points="178.8,14 198,14 198,30" fill="#FDF3CE" stroke="#ffffff" stroke-width="0.7" stroke-linejoin="round"/><polygon points="178.8,14 198,30 184.3,26.6" fill="#FDF3CE" stroke="#ffffff" stroke-width="0.7" stroke-linejoin="round"/><polygon points="6,30 21.4,28.3 30.7,52" fill="#BFD0F0" stroke="#ffffff" stroke-width="0.7" stroke-linejoin="round"/><polygon points="6,30 30.7,52 6,46" fill="#FBE6A0" stroke="#ffffff" stroke-width="0.7" stroke-linejoin="round"/><polygon points="21.4,28.3 43.4,33.2 30.7,52" fill="#C9B8E8" stroke="#ffffff" stroke-width="0.7" stroke-linejoin="round"/><polygon points="43.4,33.2 48.4,43.6 30.7,52" fill="#FBE6A0" stroke="#ffffff" stroke-width="0.7" stroke-linejoin="round"/><polygon points="43.4,33.2 61.4,29.5 63.4,46.4" fill="#C9B8E8" stroke="#ffffff" stroke-width="0.7" stroke-linejoin="round"/><polygon points="43.4,33.2 63.4,46.4 48.4,43.6" fill="#BFD0F0" stroke="#ffffff" stroke-width="0.7" stroke-linejoin="round"/><polygon points="61.4,29.5 83.4,24 63.4,46.4" fill="#CDEBF5" stroke="#ffffff" stroke-width="0.7" stroke-linejoin="round"/><polygon points="83.4,24 84,50.2 63.4,46.4" fill="#BFD0F0" stroke="#ffffff" stroke-width="0.7" stroke-linejoin="round"/><polygon points="83.4,24 102.1,29.3 101.3,47.8" fill="#9FD8E6" stroke="#ffffff" stroke-width="0.7" stroke-linejoin="round"/><polygon points="83.4,24 101.3,47.8 84,50.2" fill="#CDEBF5" stroke="#ffffff" stroke-width="0.7" stroke-linejoin="round"/><polygon points="102.1,29.3 116.5,32.5 101.3,47.8" fill="#F6AFC9" stroke="#ffffff" stroke-width="0.7" stroke-linejoin="round"/><polygon points="116.5,32.5 119.9,47.4 101.3,47.8" fill="#A8D8C0" stroke="#ffffff" stroke-width="0.7" stroke-linejoin="round"/><polygon points="116.5,32.5 144.3,28.3 142,45.1" fill="#BFD0F0" stroke="#ffffff" stroke-width="0.7" stroke-linejoin="round"/><polygon points="116.5,32.5 142,45.1 119.9,47.4" fill="#A8D8C0" stroke="#ffffff" stroke-width="0.7" stroke-linejoin="round"/><polygon points="144.3,28.3 161.9,28.8 142,45.1" fill="#CDEBF5" stroke="#ffffff" stroke-width="0.7" stroke-linejoin="round"/><polygon points="161.9,28.8 154.3,41 142,45.1" fill="#A8D8C0" stroke="#ffffff" stroke-width="0.7" stroke-linejoin="round"/><polygon points="161.9,28.8 184.3,26.6 183.8,51.6" fill="#F3C6DD" stroke="#ffffff" stroke-width="0.7" stroke-linejoin="round"/><polygon points="161.9,28.8 183.8,51.6 154.3,41" fill="#F3C6DD" stroke="#ffffff" stroke-width="0.7" stroke-linejoin="round"/><polygon points="184.3,26.6 198,30 183.8,51.6" fill="#BFD0F0" stroke="#ffffff" stroke-width="0.7" stroke-linejoin="round"/><polygon points="198,30 198,46 183.8,51.6" fill="#9FD8E6" stroke="#ffffff" stroke-width="0.7" stroke-linejoin="round"/><polygon points="6,46 30.7,52 6,62" fill="#C9B8E8" stroke="#ffffff" stroke-width="0.7" stroke-linejoin="round"/><polygon points="30.7,52 28.9,56 6,62" fill="#A8D8C0" stroke="#ffffff" stroke-width="0.7" stroke-linejoin="round"/><polygon points="30.7,52 48.4,43.6 39.7,61" fill="#FDF3CE" stroke="#ffffff" stroke-width="0.7" stroke-linejoin="round"/><polygon points="30.7,52 39.7,61 28.9,56" fill="#66C2D4" stroke="#ffffff" stroke-width="0.7" stroke-linejoin="round"/><polygon points="48.4,43.6 63.4,46.4 39.7,61" fill="#9FD8E6" stroke="#ffffff" stroke-width="0.7" stroke-linejoin="round"/><polygon points="63.4,46.4 58.3,58 39.7,61" fill="#FDF3CE" stroke="#ffffff" stroke-width="0.7" stroke-linejoin="round"/><polygon points="63.4,46.4 84,50.2 80.5,65.4" fill="#CDEBF5" stroke="#ffffff" stroke-width="0.7" stroke-linejoin="round"/><polygon points="63.4,46.4 80.5,65.4 58.3,58" fill="#F3C6DD" stroke="#ffffff" stroke-width="0.7" stroke-linejoin="round"/><polygon points="84,50.2 101.3,47.8 80.5,65.4" fill="#9FD8E6" stroke="#ffffff" stroke-width="0.7" stroke-linejoin="round"/><polygon points="101.3,47.8 99,57.5 80.5,65.4" fill="#A8D8C0" stroke="#ffffff" stroke-width="0.7" stroke-linejoin="round"/><polygon points="101.3,47.8 119.9,47.4 125.2,62.1" fill="#C9B8E8" stroke="#ffffff" stroke-width="0.7" stroke-linejoin="round"/><polygon points="101.3,47.8 125.2,62.1 99,57.5" fill="#F3C6DD" stroke="#ffffff" stroke-width="0.7" stroke-linejoin="round"/><polygon points="119.9,47.4 142,45.1 125.2,62.1" fill="#9FD8E6" stroke="#ffffff" stroke-width="0.7" stroke-linejoin="round"/><polygon points="142,45.1 143.7,59.9 125.2,62.1" fill="#F6AFC9" stroke="#ffffff" stroke-width="0.7" stroke-linejoin="round"/><polygon points="142,45.1 154.3,41 154.9,65.3" fill="#BFD0F0" stroke="#ffffff" stroke-width="0.7" stroke-linejoin="round"/><polygon points="142,45.1 154.9,65.3 143.7,59.9" fill="#66C2D4" stroke="#ffffff" stroke-width="0.7" stroke-linejoin="round"/><polygon points="154.3,41 183.8,51.6 154.9,65.3" fill="#FDF3CE" stroke="#ffffff" stroke-width="0.7" stroke-linejoin="round"/><polygon points="183.8,51.6 182.9,56.7 154.9,65.3" fill="#FBE6A0" stroke="#ffffff" stroke-width="0.7" stroke-linejoin="round"/><polygon points="183.8,51.6 198,46 198,62" fill="#C9B8E8" stroke="#ffffff" stroke-width="0.7" stroke-linejoin="round"/><polygon points="183.8,51.6 198,62 182.9,56.7" fill="#66C2D4" stroke="#ffffff" stroke-width="0.7" stroke-linejoin="round"/><polygon points="6,62 28.9,56 25.2,78" fill="#FDF3CE" stroke="#ffffff" stroke-width="0.7" stroke-linejoin="round"/><polygon points="6,62 25.2,78 6,78" fill="#FDF3CE" stroke="#ffffff" stroke-width="0.7" stroke-linejoin="round"/><polygon points="28.9,56 39.7,61 25.2,78" fill="#BFD0F0" stroke="#ffffff" stroke-width="0.7" stroke-linejoin="round"/><polygon points="39.7,61 44.4,78 25.2,78" fill="#F3C6DD" stroke="#ffffff" stroke-width="0.7" stroke-linejoin="round"/><polygon points="39.7,61 58.3,58 63.6,78" fill="#F3C6DD" stroke="#ffffff" stroke-width="0.7" stroke-linejoin="round"/><polygon points="39.7,61 63.6,78 44.4,78" fill="#C9B8E8" stroke="#ffffff" stroke-width="0.7" stroke-linejoin="round"/><polygon points="58.3,58 80.5,65.4 63.6,78" fill="#FDF3CE" stroke="#ffffff" stroke-width="0.7" stroke-linejoin="round"/><polygon points="80.5,65.4 82.8,78 63.6,78" fill="#F3C6DD" stroke="#ffffff" stroke-width="0.7" stroke-linejoin="round"/><polygon points="80.5,65.4 99,57.5 102,78" fill="#F3C6DD" stroke="#ffffff" stroke-width="0.7" stroke-linejoin="round"/><polygon points="80.5,65.4 102,78 82.8,78" fill="#66C2D4" stroke="#ffffff" stroke-width="0.7" stroke-linejoin="round"/><polygon points="99,57.5 125.2,62.1 102,78" fill="#9FD8E6" stroke="#ffffff" stroke-width="0.7" stroke-linejoin="round"/><polygon points="125.2,62.1 121.2,78 102,78" fill="#66C2D4" stroke="#ffffff" stroke-width="0.7" stroke-linejoin="round"/><polygon points="125.2,62.1 143.7,59.9 140.4,78" fill="#9FD8E6" stroke="#ffffff" stroke-width="0.7" stroke-linejoin="round"/><polygon points="125.2,62.1 140.4,78 121.2,78" fill="#C9B8E8" stroke="#ffffff" stroke-width="0.7" stroke-linejoin="round"/><polygon points="143.7,59.9 154.9,65.3 140.4,78" fill="#CDEBF5" stroke="#ffffff" stroke-width="0.7" stroke-linejoin="round"/><polygon points="154.9,65.3 159.6,78 140.4,78" fill="#A8D8C0" stroke="#ffffff" stroke-width="0.7" stroke-linejoin="round"/><polygon points="154.9,65.3 182.9,56.7 178.8,78" fill="#FBE6A0" stroke="#ffffff" stroke-width="0.7" stroke-linejoin="round"/><polygon points="154.9,65.3 178.8,78 159.6,78" fill="#9FD8E6" stroke="#ffffff" stroke-width="0.7" stroke-linejoin="round"/><polygon points="182.9,56.7 198,62 178.8,78" fill="#F6AFC9" stroke="#ffffff" stroke-width="0.7" stroke-linejoin="round"/><polygon points="198,62 198,78 178.8,78" fill="#CDEBF5" stroke="#ffffff" stroke-width="0.7" stroke-linejoin="round"/></g></svg>
