<?xml version="1.0" encoding="utf-8"?>
<!-- Generator: Adobe Illustrator 27.9.5, SVG Export Plug-In . SVG Version: 9.03 Build 54986)  -->
<svg version="1.1" xmlns="http://www.w3.org/2000/svg" xmlns:xlink="http://www.w3.org/1999/xlink" x="0px" y="0px"
	 viewBox="0 0 900 300" style="enable-background:new 0 0 900 300;" xml:space="preserve">
<style type="text/css">
	.st0{fill:#9888BB;}
	.st1{fill:#EBB1CC;}
	.st2{fill:#0F94D4;}
	.st3{fill:#B2BADE;}
	.st4{fill:#FAF1C2;}
	.st5{fill:#66C2D4;}
	.st6{fill:#82C8C5;}
	.st7{fill:#FBF9D6;}
</style>
<g id="レイヤー_1">
</g>
<g id="design">
	<g>
		<path class="st0" d="M117.68,182.61l-2.54-0.83c12.21,9.92,24.74,18.85,37.42,26.66l21.87-12.9L117.68,182.61z"/>
		<polygon class="st1" points="183.33,189.97 183.33,147.84 110.49,171.76 		"/>
		<path class="st2" d="M183.33,225.08v-23.97l-21.55,12.79C168.85,217.93,176.06,221.67,183.33,225.08z"/>
		<polygon class="st3" points="191.4,88.85 191.4,136.7 260.43,120.4 		"/>
		<polygon class="st4" points="269.32,114.83 273.13,87.33 212.61,87.33 		"/>
		<polygon class="st5" points="191.4,147.84 191.4,189.97 264.24,171.77 		"/>
		<path class="st2" d="M247.47,246.25c7.44,1.45,15.87,2.75,25.67,3.97l5.72-19.61l-34.2,15.07
			C245.6,245.88,246.54,246.07,247.47,246.25z"/>
		<path class="st0" d="M191.4,201.11v27.6c12.58,5.44,25.45,9.93,38.33,13.37l40.23-17.05L191.4,201.11z"/>
		<polygon class="st2" points="278.85,219.47 273.13,177.34 200.29,195.54 		"/>
		<polygon class="st1" points="277.39,125.97 281.2,166.2 348.33,134.65 		"/>
		<polygon class="st6" points="357.22,129.08 362.94,88.85 286.28,120.4 		"/>
		<polygon class="st3" points="281.2,177.34 286.92,219.47 354.04,201.26 		"/>
		<polygon class="st4" points="362.94,195.69 357.22,140.22 290.09,171.77 		"/>
		<polygon class="st5" points="281.2,87.33 277.39,114.83 341.73,87.33 		"/>
		<path class="st0" d="M286.92,230.61l-5.72,20.56c17.27,1.9,36.58,3.28,57.69,4.11L286.92,230.61z"/>
		<polygon class="st1" points="362.94,254.68 362.94,206.83 295.81,225.04 		"/>
		<polygon class="st3" points="371.01,88.85 365.29,129.08 443.85,112.78 		"/>
		<polygon class="st7" points="452.74,107.21 452.74,87.33 392.21,87.33 		"/>
		<polygon class="st5" points="365.29,140.22 371.01,195.69 457.19,171.77 		"/>
		<polygon class="st1" points="466.08,166.2 452.74,118.35 374.18,134.65 		"/>
		<path class="st2" d="M452.74,256.09v-19.77l-61.03,20.05C411.36,256.56,432.33,256.58,452.74,256.09z"/>
		<polygon class="st6" points="371.01,206.83 371.01,254.68 443.85,230.75 		"/>
		<polygon class="st3" points="452.74,225.18 466.08,177.34 379.9,201.26 		"/>
		<polygon class="st6" points="460.81,118.35 474.15,166.2 531.75,142.27 		"/>
		<polygon class="st3" points="540.64,136.7 542.55,88.85 469.71,112.78 		"/>
		<polygon class="st2" points="474.15,177.34 460.81,225.18 543.18,201.26 		"/>
		<polygon class="st3" points="552.08,195.69 540.64,147.84 483.04,171.77 		"/>
		<polygon class="st1" points="460.81,87.33 460.81,107.21 521.35,87.33 		"/>
		<path class="st0" d="M460.81,236.32v19.55c18.69-0.57,35.38-1.55,50.5-2.96L460.81,236.32z"/>
		<path class="st1" d="M530.6,250.75c4.06-0.53,8.05-1.11,11.95-1.74l9.53-42.19l-82.37,23.92L530.6,250.75z"/>
		<polygon class="st5" points="550.62,88.85 548.71,136.7 619.65,118.5 		"/>
		<polygon class="st4" points="628.54,112.93 632.35,87.33 571.82,87.33 		"/>
		<polygon class="st1" points="548.71,147.84 560.14,195.69 613.93,171.77 		"/>
		<polygon class="st0" points="622.82,166.2 628.54,124.07 557.6,142.27 		"/>
		<path class="st5" d="M561.93,245.34c19.32-4.05,37.71-7.91,55.69-16.5l-57.48-22.01l-9.53,40.79c2.35-0.43,4.67-0.88,6.94-1.36
			L561.93,245.34z"/>
		<path class="st6" d="M627.5,223.59c1.62-0.95,3.24-1.94,4.85-2.98l-9.53-43.27l-53.79,23.92L627.5,223.59z"/>
		<path class="st3" d="M704,142.86l-67.39-18.51l-5.72,41.85l68.47-19.36C700.85,145.47,702.38,144.16,704,142.86z"/>
		<polygon class="st4" points="708.28,135.86 708.28,90.13 643.98,118.53 		"/>
		<polygon class="st1" points="640.42,87.33 636.61,112.67 692.78,87.33 		"/>
		<path class="st0" d="M668.19,186.46l-37.3-9.12l9.53,37.55C650.33,207.25,659.48,197.87,668.19,186.46z"/>
		<path class="st2" d="M673.2,179.61c1.43-2.02,2.85-4.09,4.27-6.28c3.32-5.11,6.78-9.86,10.36-14.22l-48.05,12.65L673.2,179.61z"/>
		<path class="st5" d="M757.85,129.3c4.26,0.85,8.23,1.92,11.84,2.89c4.26,1.15,8.28,2.23,11.61,2.63
			c18.26,2.2,34.76,3.78,48.09,1.32l-21.31-10.51l-17.15-8.46L757.85,129.3z"/>
		<path class="st1" d="M787.91,107.32l7.84-50.85l-2.36,0.88c-10.35,3.96-20.96,8.32-31,12.44c-14.65,6.02-27.94,11.48-37.85,14.64
			l62.28,22.49L787.91,107.32z"/>
		<polygon class="st6" points="716.35,90.06 716.35,134.36 758.49,120.47 779.36,112.81 		"/>
		<path class="st3" d="M863.97,75.51c-0.71-13.62-4.48-24.06-10.55-29.25l-47.44,55.41L863.97,75.51z"/>
		<path class="st2" d="M809.91,108.74h49.85c2.4-7.42,3.88-15.96,4.24-24.4L809.91,108.74z"/>
		<path class="st0" d="M840.61,132.68c4.25-1.98,7.81-4.57,10.84-7.9c1.81-1.99,3.54-4.69,5.11-7.96h-48.11L840.61,132.68z"/>
		<path class="st4" d="M845.13,43.54c-8.12-0.27-21.86,3.01-40.72,9.73L797.3,99.4L845.13,43.54z"/>
		<path class="st3" d="M101.59,132.87v33.32l45.31-14.88l8.02-15.45l-40.04-13.15C112.24,127.85,107.42,131.7,101.59,132.87z"/>
		<path class="st2" d="M116.99,114.91l43.05,14.14l23.29-40.2l-66.58,21.87c0.18,1.06,0.33,2.13,0.33,3.23
			C117.08,114.28,117,114.59,116.99,114.91z"/>
		<path class="st5" d="M113.8,103.2l48.32-15.87h-60.53v7.7C106.66,96.05,111.01,99.05,113.8,103.2z"/>
		<path class="st1" d="M78.78,110.85L36.02,96.81C36.01,97.07,36,97.34,36,97.61c0,7.2,9.06,17.73,16.68,25.66l25.87-8.5
			c-0.01-0.28-0.08-0.54-0.08-0.82C78.47,112.89,78.61,111.87,78.78,110.85z"/>
		<path class="st4" d="M93.53,95.15v-7.82H51.1c-3.6,0-7.9,0.48-10.96,2.34l41.55,13.65C84.39,99.24,88.61,96.26,93.53,95.15z"/>
		<path class="st2" d="M80.6,122.59l-21.56,7.08c3.51,3.44,7.16,6.91,10.79,10.36c4.49,4.27,8.95,8.5,13.06,12.61
			c3.4,3.4,6.96,6.84,10.64,10.27v-30.16C87.85,131.47,83.17,127.66,80.6,122.59z"/>
	</g>
</g>
</svg>
