<?xml version="1.0" encoding="utf-8"?>
<!-- Generator: Adobe Illustrator 27.9.5, SVG Export Plug-In . SVG Version: 9.03 Build 54986)  -->
<svg version="1.1" xmlns="http://www.w3.org/2000/svg" xmlns:xlink="http://www.w3.org/1999/xlink" x="0px" y="0px"
	 viewBox="0 0 1440 120" style="enable-background:new 0 0 1440 120;" xml:space="preserve">
<style type="text/css">
	.st0{fill:#66C2D4;}
</style>
<g id="レイヤー_1">
</g>
<g id="design">
	<path class="st0" d="M1439.91,62.44c-55.34-25.47-112.68,17.32-171.4,25.29c-34.71,4.71-60.63-12.95-93.15-17.2
		c-24.42-3.19-49.02,10.72-71.24,18.8c-28.6,10.39-59.27,22.07-90.11,15.17c-34.78-7.78-64.71-38.42-99.94-42
		c-50.23-5.11-99.3,45.93-147.45,27.62c-16.5-6.27-30.45-20.16-46.62-27.63c-0.03-0.01-0.06-0.03-0.09-0.04
		c-55.34-25.47-112.68,17.32-171.4,25.29c-34.71,4.71-60.63-12.95-93.15-17.2c-24.42-3.19-49.02,10.72-71.24,18.8
		c-28.6,10.39-59.27,22.07-90.11,15.17c-34.78-7.78-64.71-38.42-99.94-42c-50.23-5.11-99.3,45.93-147.45,27.62
		C30.11,83.84,16.17,69.96,0,62.49V120h1440V62.49C1439.97,62.47,1439.94,62.45,1439.91,62.44z"/>
</g>
</svg>
